<svg width="581" height="162" viewBox="0 0 581 162" fill="none" xmlns="http://www.w3.org/2000/svg">
<g clip-path="url(#clip0_1880_1755)">
<path fill-rule="evenodd" clip-rule="evenodd" d="M114.74 88.81C119.22 92.41 127.63 94.33 129.7 107.63C131.77 120.89 120.11 141.98 102.68 148.79C90.6702 153.49 83.8202 152.3 72.8802 151.61C68.2902 148.98 56.7102 147.17 51.8202 133.43C49.2102 126.08 47.1402 117.04 50.2902 109.2L51.8902 104.37C52.9302 98.53 52.4702 106.16 54.1502 101.29C54.3902 100.56 53.6802 100.94 55.1202 98.79L60.0102 93.55C62.6202 90.99 63.6702 91.29 64.5402 88.01C61.4302 87.17 63.4602 87.17 60.3402 86.33L64.2002 81.82C65.1002 80.51 64.8902 81.45 65.3702 79.64C69.1002 80.52 68.0602 81.3 71.2302 82.16C67.6102 75.3 69.9202 75.71 75.6302 69.79C79.7702 65.5 82.3602 63.71 88.0002 61.19C95.4602 57.85 104.24 57.05 113.94 57.87C117.76 58.19 119.24 59.4 123.25 59.49L124.22 60.22C125.67 61.08 124.46 60.44 125.86 61.1C131.62 63.8 141.77 68.15 147.61 68.67C163.72 70.11 156.34 68.26 171.05 68.69C175.13 68.8 174.95 69.47 178.55 69.55C175.45 65.48 171.59 65.95 168.48 63.68C176.52 62.73 176.05 63.49 177.17 61.65C178.01 60.25 179.22 59.19 181.87 59.3L184.28 59.77C184.41 59.77 184.65 59.71 184.78 59.71C184.91 59.69 185.17 59.62 185.3 59.58C185.43 59.54 185.69 59.45 185.82 59.43C190.37 58.26 192.98 54.38 198.2 53.14C202.84 52.06 207.6 52.06 212.93 44.47C205.69 45.09 193.12 58.16 157.5 46.26C154.8 45.36 152.52 44.19 150.06 43.63C151.09 41.47 151.59 39.75 149.87 37.14C148.15 34.53 143.27 32.65 140.08 31.88C137.88 30.91 134.62 29.81 131.82 29.16C129.21 28.54 125.33 28.38 122.38 27.69C123.95 26.66 129.09 26.29 130.9 26.1C133.92 25.78 137.71 25.97 140.82 25.97C139.01 23.58 136.79 24.1 132.56 24.44L125.01 24.5C119.19 26.01 117.85 26.85 109.81 26.85C110.56 24.76 111.99 24.57 109.1 24.28C90.6902 22.41 74.0402 33.14 68.7202 34.39C70.4002 32.11 93.1902 19.75 97.2402 17.64L122.27 3.26001C124.14 1.82001 124.19 2.64001 124.9 0.0100098L115.31 2.99001C107.68 5.97001 88.9802 11.55 81.3702 12.65C72.9602 13.86 81.7102 11.27 69.5802 15.02L65.0102 16.36C60.3102 18.21 62.4502 18.58 59.7502 19.46C55.9602 20.69 59.6802 18.12 56.2802 19.5C53.5402 20.62 55.2902 20.92 51.9302 21.81C53.6602 19.16 55.9002 17.8 58.4402 15.71C62.0402 12.76 64.5802 12.11 65.3402 9.22001C61.2002 9.31001 59.6102 11.36 56.8002 13.25C53.9302 15.17 51.6002 16.66 48.7402 18.6C45.7202 20.65 44.6902 22.01 41.1502 23.58C37.4202 25.24 35.8702 26.4 32.6302 28.5C33.4702 25.27 35.9702 23.22 37.6702 20.13C33.8302 21.17 36.7602 21.85 30.8802 25.87C27.8202 27.96 28.7202 27.87 27.5202 30.05C25.2802 34.15 22.5602 33.71 17.4702 40.18C14.3202 44.19 9.25023 45.7 7.51023 48.52L6.82023 50.89C6.78023 51 6.71023 51.24 6.65023 51.36C5.06023 54.59 0.420234 55.41 -0.00976562 60.33C3.68023 60.42 5.86023 61.21 10.8402 61.19C39.6702 61.12 41.1702 46.81 72.1102 49.4C76.4702 49.77 79.8902 50.31 83.7902 50.3V51.96C73.3302 52.18 52.1602 63.11 45.4402 68.11C35.0102 75.89 26.0202 86.37 21.8102 99.83C14.1102 124.45 26.5802 143.25 46.3402 153.13C50.9802 155.46 60.7402 159.9 66.7802 160.09C70.3802 161.6 103.41 161.04 104.32 160.76C107.01 159.92 104.95 160.95 104.13 160.16C102.36 158.48 102.45 161.32 103.09 159.25C105.14 158.77 110.14 158.32 111.52 157.22C111.59 157.16 111.74 156.98 111.8 156.92L112.3 155.91C118.47 155.91 125.47 154.68 129.53 152.2C133.71 149.64 134.17 150.71 139.66 148.9C145.52 146.96 160.72 141.91 163.42 138.36C158.1 139.63 148.84 144.23 139.1 144.23C139.27 144.1 139.57 143.76 139.66 143.91C139.75 144.08 140.09 143.67 140.22 143.61C145.8 140.64 142.74 141.84 145.57 139.71C146.32 139.15 147.58 138.67 148.35 138.29C148.29 135.73 147.96 135.27 147.51 133.25C150.53 131.22 150.14 132.08 150.83 129.09L151.13 127.64C151.97 123.13 153.41 121.99 157.84 116.73L170.24 102.52C169.83 98.86 196.98 89.05 197.84 78.82C195.58 80.54 196.05 81.86 191.2 85.55C183.46 91.44 180.35 91.46 170.18 91.39C164.29 91.33 162.22 92.25 156.75 92.25C159.25 88.71 158.93 92.36 160.11 88.05C155.97 89.04 154.68 89.77 149.24 89.78C136.61 89.82 135.29 81.54 119.62 80.49C105.2 80.25 88.2302 77.34 72.5802 87.65C48.5802 103.47 57.7002 125.1 74.6302 125.77C79.3702 125.96 82.9502 124.48 85.2402 122.11C94.0202 112.99 83.3602 104.91 82.4602 103.65C73.1002 90.39 90.3102 84.35 108.55 87.61C111.2 88.08 112.47 88.62 114.74 88.82L114.7 88.8L114.74 88.81Z" fill="black"/>
<path fill-rule="evenodd" clip-rule="evenodd" d="M257.13 136.8C265.35 136.8 270.23 135.79 276.37 132.38C281.09 129.74 282.29 128.67 284.96 124.89L287.41 121.67L288.55 134.89L294.96 134.92V91.4499H259.03V98.9999H287.38C286.64 132.17 250.75 136.43 236.6 119.52C221.44 101.45 225.4 63.6199 250.93 57.7899C268.85 53.7099 284.28 65.2099 284.56 77.2399H294.01C291.52 47.3299 249.16 40.1799 229.95 60.4299C209.36 82.1499 216.05 136.79 257.16 136.79H257.13V136.8ZM307.23 93.3299H315.73C315.73 75.1999 343.19 74.6499 346.29 88.3599C350.92 108.88 304.38 89.0299 304.38 118.83C304.38 131.35 314.35 136.78 327.05 136.78C337.45 136.78 342.05 131.93 346.9 126.38C349.08 135.71 349.42 134.88 361.07 134.88V127.33C355.73 128.59 354.5 126.66 354.38 119.84C354.07 100.76 357.94 83.5099 348 76.1199C339.1 69.4899 307.2 67.7399 307.2 93.2999L307.23 93.3299ZM312.91 118.86C312.91 131.04 335.25 133.28 343.22 121.74C346.56 116.89 346.93 111.22 346.93 102.78C336.74 108.18 312.91 103.7 312.91 118.86ZM526.5 93.3299H535C535 73.0499 565.25 76.9199 565.25 88.6099V93.3299C565.25 105.11 523.68 91.3699 523.68 118.86C523.68 139.72 551.54 140.73 562.18 130.89C564.79 128.47 563.59 128.34 566.23 126.41C567.06 136.2 572.21 134.91 580.4 134.91V127.36C576.69 128.22 578.44 128.22 574.72 127.36C569.69 105.73 581.13 82.9999 564.99 74.7099C555.3 69.7099 526.52 69.0299 526.52 93.3299H526.49H526.5ZM532.18 116.95C532.18 133.52 554.91 131.55 561.91 122.1C566.39 116.06 565.25 113.2 565.25 103.72L545.8 106.94C540.19 108.04 532.18 111.05 532.18 116.94V116.95ZM400.81 101.82V109.37C400.81 146.12 454.68 144.28 454.68 114.09C440.6 114.09 450.42 114.8 441.73 123.82C432.37 133.55 414.76 130.63 410.1 115.2C409.18 112.16 409.73 109.34 408.38 106.52H455.63C455.63 88.5699 449.52 73.9699 430.41 72.1899C413.14 70.5599 400.8 83.3899 400.8 101.8V101.83L400.81 101.82ZM409.31 99.9199H447.11C446.22 89.2699 439.59 79.1199 428.21 79.1199C417.63 79.1199 409.31 89.3399 409.31 99.9199ZM472.63 81.0199V73.4699H464.13V134.89H472.63V98.9599C472.63 74.5099 505.7 72.1499 505.7 94.2399V134.89H514.2V93.3199C514.2 72.4599 496.13 69.5099 483.8 73.3199C477.08 75.4099 477.2 77.9799 472.6 81.0499L472.63 81.0199ZM376.23 85.7399V73.4699H368.68V134.89H377.18V100.87C377.18 89.2099 386.38 81.0199 399.85 81.0199V72.5199C391.08 72.5199 385.4 74.5799 380.21 80.2799L376.22 85.7399H376.23Z" fill="black"/>
</g>
<defs>
<clipPath id="clip0_1880_1755">
<rect width="580.41" height="161.09" fill="white"/>
</clipPath>
</defs>
</svg>
