<svg width="513" height="125" viewBox="0 0 513 125" fill="none" xmlns="http://www.w3.org/2000/svg">
<g clip-path="url(#clip0_1880_1756)">
<path d="M277.15 33.9399H257.81V107.63H277.15V33.9399Z" fill="black"/>
<path d="M184.5 33.9399H165.16V107.63H184.5V33.9399Z" fill="black"/>
<path d="M345.17 33.9399H325.83V107.63H345.17V33.9399Z" fill="black"/>
<path fill-rule="evenodd" clip-rule="evenodd" d="M131.17 99.23C124.52 105.05 115.82 108.57 106.3 108.57C85.4298 108.57 68.5098 91.65 68.5098 70.78C68.5098 49.91 85.4298 32.99 106.3 32.99C115.7 32.99 124.26 36.42 130.92 42.1L118.37 56.23C115.05 53.51 110.89 51.88 106.31 51.88C95.8698 51.88 87.4098 60.34 87.4098 70.77C87.4098 81.2 95.8698 89.67 106.31 89.67C111.03 89.67 115.35 87.94 118.66 85.08L131.19 99.23H131.17Z" fill="black"/>
<path fill-rule="evenodd" clip-rule="evenodd" d="M24.89 93.98L20.52 107.62H0L37.19 0L74.38 107.63H53.86L49.49 93.99H24.9L24.89 93.98ZM37.19 55.56L31.22 74.22H43.16L37.19 55.56Z" fill="black"/>
<path fill-rule="evenodd" clip-rule="evenodd" d="M154.03 27.7001H184.74L221.15 124.54L257.57 27.7001H349.28L338.61 8.3501H243.3L221.15 66.2201L199 8.3501H100.92L90.25 27.7001H134.7V107.63H154.04L154.03 27.7001Z" fill="black"/>
<path fill-rule="evenodd" clip-rule="evenodd" d="M367.57 70.78C367.57 60.44 375.95 52.06 386.29 52.06C396.63 52.06 405.01 60.44 405.01 70.78C405.01 81.12 396.63 89.5 386.29 89.5C375.95 89.5 367.57 81.12 367.57 70.78ZM348.5 70.78C348.5 49.91 365.42 32.99 386.29 32.99C407.16 32.99 424.08 49.91 424.08 70.78C424.08 91.65 407.16 108.57 386.29 108.57C365.42 108.57 348.5 91.65 348.5 70.78Z" fill="black"/>
<path fill-rule="evenodd" clip-rule="evenodd" d="M462.02 61.7501V33.9401H481.36V110.4L446.62 76.3501V107.63H427.28V31.8601L462.02 61.7501Z" fill="black"/>
<path fill-rule="evenodd" clip-rule="evenodd" d="M497 106.85H499.68V102.09H502.36C503.02 102.09 503.51 102.23 503.81 102.53C504.11 102.83 504.31 103.29 504.39 103.93C504.45 104.43 504.49 104.94 504.53 105.47C504.57 106 504.66 106.46 504.81 106.85H507.49C507.33 106.61 507.22 106.32 507.16 105.97C507.09 105.62 507.05 105.26 507.03 104.9C507.01 104.54 506.99 104.23 506.98 103.96C506.95 103.33 506.81 102.74 506.55 102.2C506.3 101.66 505.85 101.3 505.2 101.11V101.07C505.87 100.79 506.36 100.4 506.67 99.8799C506.98 99.3599 507.13 98.7399 507.13 98.0199C507.12 97.0699 506.8 96.2799 506.17 95.6499C505.54 95.0199 504.67 94.6899 503.57 94.6599H497V106.84V106.85ZM499.68 96.7499H502.61C503.21 96.7499 503.67 96.8799 503.98 97.1499C504.29 97.4199 504.45 97.8499 504.45 98.4399C504.45 99.0499 504.29 99.4899 503.98 99.7699C503.67 100.05 503.21 100.18 502.61 100.18H499.68V96.7499Z" fill="black"/>
<path fill-rule="evenodd" clip-rule="evenodd" d="M491.99 101.13C491.99 95.76 496.35 91.4 501.72 91.4C507.09 91.4 511.45 95.76 511.45 101.13C511.45 106.5 507.09 110.86 501.72 110.86C496.35 110.86 491.99 106.5 491.99 101.13ZM490.85 101.13C490.85 95.13 495.72 90.26 501.72 90.26C507.72 90.26 512.59 95.13 512.59 101.13C512.59 107.13 507.72 112 501.72 112C495.72 112 490.85 107.13 490.85 101.13Z" fill="black"/>
<path fill-rule="evenodd" clip-rule="evenodd" d="M302.09 53.2999C302.09 50.2499 305.05 49.8999 307.19 49.8999H319.81V33.9399H300.78C286.19 33.9399 283.47 44.2699 283.47 50.8399C283.47 68.1799 303.28 79.6399 303.28 86.4199C303.28 90.3699 298.83 91.0199 296.74 91.0199H282.53V107.63H303.53C310.64 107.63 322.67 104.29 322.67 90.8999C322.67 71.6999 302.08 61.8499 302.08 53.2999H302.09Z" fill="black"/>
</g>
<defs>
<clipPath id="clip0_1880_1756">
<rect width="512.59" height="124.54" fill="white"/>
</clipPath>
</defs>
</svg>
