<svg width="456" height="128" viewBox="0 0 456 128" fill="none" xmlns="http://www.w3.org/2000/svg">
<g clip-path="url(#clip0_40_383)">
<path d="M76.48 0.21L0 35.61L19.09 108.12L33.57 106.3L29.6 60.71L34.32 58.56L42.58 105.11L67.36 102.11L62.96 51.81L67.68 49.66L76.69 100.93L101.79 97.82L96.96 42.69L101.68 40.54L111.55 96.64L136.33 93.64V15.12L76.48 0.21ZM78.3 110.26L79.59 117.45L136.44 126.89V103.08L78.31 110.27L78.3 110.26ZM190.06 95.35V105.11H202.07C202.07 107.04 201.53 109.08 200.57 110.79C199.5 112.51 198 113.9 196.17 114.76C194.02 115.73 191.67 116.26 189.31 116.15C186.63 116.26 183.84 115.51 181.59 114C179.34 112.39 177.62 110.25 176.55 107.67C175.26 104.45 174.73 101.13 174.83 97.69C174.72 94.36 175.37 90.93 176.65 87.82C177.72 85.35 179.44 83.21 181.69 81.6C183.94 80.1 186.62 79.35 189.31 79.45C190.7 79.45 192.1 79.66 193.49 79.99C194.67 80.31 195.85 80.85 196.82 81.6C197.79 82.35 198.64 83.21 199.29 84.17C199.93 85.24 200.47 86.42 200.79 87.6H214.2C213.88 84.81 212.91 82.02 211.52 79.66C210.13 77.19 208.3 75.16 206.05 73.44C203.69 71.62 201.12 70.22 198.43 69.36C195.43 68.39 192.32 67.86 189.1 67.86C185.35 67.86 181.7 68.5 178.27 69.9C174.94 71.29 171.94 73.23 169.47 75.8C166.9 78.48 164.86 81.7 163.57 85.24C162.07 89.32 161.32 93.61 161.42 98C161.42 104.11 162.6 109.48 164.96 113.98C167.21 118.27 170.64 121.92 174.83 124.28C183.41 128.89 193.81 129.11 202.61 124.92C206.36 122.99 209.47 120.09 211.62 116.45C213.87 112.7 214.95 108.3 214.95 103.15V95.64L190.07 95.32L190.06 95.35ZM356.53 126.88V68.53H396.54V79.36H369.73V92.34H391.4V103.17H369.73V116.15H396.54V126.98H356.53V126.87V126.88ZM435.37 85.69C435.26 83.65 434.3 81.83 432.69 80.54C431.08 79.36 428.83 78.72 425.93 78.72C424.32 78.72 422.6 78.93 421.1 79.47C419.92 79.9 418.85 80.65 418.1 81.62C417.46 82.48 417.03 83.55 417.03 84.73C417.03 85.59 417.24 86.45 417.67 87.3C418.1 88.05 418.74 88.69 419.49 89.23C420.35 89.77 421.31 90.3 422.28 90.62C423.46 91.05 424.64 91.37 425.93 91.59L431.08 92.77C433.55 93.31 436.01 94.16 438.37 95.13C440.41 96.1 442.34 97.28 443.95 98.78C445.45 100.17 446.63 101.89 447.49 103.71C448.35 105.75 448.78 108 448.78 110.15C448.89 113.48 447.92 116.8 446.1 119.48C444.17 122.16 441.38 124.31 438.27 125.59C434.3 127.09 430.12 127.84 425.94 127.74C421.65 127.85 417.36 127.1 413.39 125.59C410.06 124.3 407.17 121.94 405.13 119.05C403.2 116.15 402.13 112.51 402.02 108.11H414.78C414.89 111.54 417.03 114.65 420.25 115.83C422.07 116.47 424 116.8 425.83 116.8C427.55 116.8 429.37 116.59 430.98 115.94C432.27 115.51 433.45 114.65 434.31 113.58C435.06 112.61 435.49 111.33 435.49 110.15C435.49 108.97 435.06 107.9 434.42 107.04C433.56 106.07 432.38 105.32 431.2 104.89C429.48 104.14 427.66 103.6 425.84 103.28L419.62 101.78C414.69 100.6 410.72 98.78 407.82 96.2C404.92 93.63 403.53 90.19 403.53 85.8C403.42 82.47 404.5 79.15 406.43 76.36C408.47 73.57 411.26 71.43 414.47 70.03C418.12 68.42 422.09 67.67 426.05 67.78C430.02 67.67 433.99 68.53 437.63 70.03C440.74 71.42 443.42 73.57 445.25 76.36C447.07 79.15 448.04 82.37 448.04 85.8L435.38 85.69H435.37ZM347.2 126.88H334.11V82.47H332.72L319.53 126.88H306.44L293.57 82.47H291.85V126.88H278.76V68.53H300.96L312.22 107.68H313.51L324.77 68.53H346.97V126.88H347.18H347.2ZM258.39 126.88H272.55L252.92 68.53H235.01L215.38 126.88H229.54L233.29 114.01H254.53L258.39 126.88ZM236.4 103.93L242.73 82.59H245.2L251.64 103.93H236.41H236.4ZM451.99 74.76C450.81 74.76 449.63 74.01 449.2 72.83C448.88 72.08 448.88 71.22 449.2 70.47C449.41 70.15 449.63 69.83 449.84 69.5C450.16 69.18 450.48 68.96 450.81 68.86C451.56 68.54 452.42 68.54 453.17 68.86C453.49 69.07 453.92 69.29 454.14 69.5C454.46 69.82 454.68 70.14 454.78 70.47C455.1 71.22 455.1 72.08 454.78 72.83C454.67 73.15 454.46 73.58 454.14 73.8C453.82 74.12 453.5 74.34 453.17 74.44C452.85 74.65 452.42 74.76 451.99 74.76ZM451.99 73.9C452.42 73.9 452.85 73.79 453.17 73.58C453.49 73.37 453.81 73.15 454.03 72.83C454.46 72.19 454.46 71.22 454.03 70.58C453.82 70.26 453.6 70.04 453.17 69.83C452.42 69.4 451.56 69.4 450.92 69.83C450.6 70.04 450.38 70.26 450.17 70.58C449.74 71.33 449.74 72.19 450.17 72.83C450.38 73.15 450.6 73.37 450.92 73.58C451.24 73.79 451.67 73.9 451.99 73.9ZM450.92 72.93V70.03H452.31C452.52 70.03 452.63 70.03 452.85 70.14C453.07 70.25 453.17 70.35 453.17 70.46C453.28 70.57 453.28 70.78 453.28 71C453.28 71.22 453.28 71.32 453.17 71.54C453.06 71.65 452.96 71.75 452.85 71.86C452.64 71.97 452.53 71.97 452.31 71.97H451.34V71.43H452.09C452.2 71.43 452.3 71.43 452.41 71.32C452.52 71.21 452.52 71.11 452.52 71C452.52 70.89 452.41 70.79 452.41 70.68C452.3 70.57 452.2 70.57 452.09 70.57H451.66V72.82H450.91V72.93H450.92ZM452.74 71.64L453.38 72.93H452.52L451.98 71.64H452.73H452.74ZM218.59 0.75H231.78V59.1H218.59V0.75ZM294.53 30.03C294.53 36.47 293.35 41.83 290.88 46.33C288.63 50.62 285.2 54.16 281.01 56.52C272.21 61.24 261.7 61.24 252.91 56.52C248.73 54.16 245.29 50.62 243.04 46.33C240.57 41.83 239.39 36.46 239.39 30.03C239.39 23.6 240.57 18.23 243.04 13.73C245.29 9.44 248.72 5.9 252.91 3.54C261.71 -1.18 272.22 -1.18 281.01 3.54C285.19 5.9 288.63 9.44 290.88 13.73C293.24 18.13 294.42 23.6 294.53 30.03ZM281.02 30.03C281.13 26.6 280.59 23.17 279.3 19.95C278.33 17.48 276.62 15.34 274.37 13.73C269.76 10.83 263.86 10.83 259.35 13.73C257.1 15.23 255.38 17.38 254.42 19.95C252.06 26.49 252.06 33.57 254.42 40.01C255.39 42.48 257.1 44.73 259.35 46.23C263.96 49.02 269.75 49.02 274.37 46.23C276.62 44.73 278.23 42.48 279.3 40.01C280.59 36.9 281.12 33.47 281.02 30.03ZM190.92 38.83L197.68 59.21H212.16L204.65 37.22H194.46L193.82 35.4C195.75 34.97 199.08 34.43 202.08 32.4C206.26 29.5 208.84 24.78 208.84 19.74C208.95 16.31 208.09 12.88 206.37 9.87C204.65 6.97 202.08 4.61 199.08 3.22C195.54 1.61 191.68 0.75 187.71 0.86H164.11V59.21H177.3V38.83H190.92ZM190.6 26.71C188.78 27.35 186.85 27.68 184.92 27.68H177.2V11.48H184.82C186.75 11.37 188.68 11.8 190.5 12.45C191.89 12.99 193.07 14.06 193.93 15.35C194.79 16.64 195.11 18.25 195.11 19.75C195.22 21.25 194.79 22.75 193.93 24.04C193.29 25.33 192 26.29 190.6 26.72M295.71 0.75V11.58H318.34L318.98 13.51C317.05 13.94 313.83 14.48 310.94 16.41V59.21H324.03V11.58H339.26V0.75H295.71Z" fill="black"/>
</g>
<defs>
<clipPath id="clip0_40_383">
<rect width="455.02" height="127.94" fill="white"/>
</clipPath>
</defs>
</svg>
