<svg width="173" height="33" viewBox="0 0 173 33" fill="none" xmlns="http://www.w3.org/2000/svg">
<g clip-path="url(#clip0_1901_630)">
<path d="M126.486 16.3522C126.486 14.2975 126.449 12.2428 126.496 10.1881C126.538 8.36943 127.315 7.6041 129.162 7.58075C132.185 7.54443 135.211 7.52886 138.231 7.58853C140.769 7.63782 142.117 9.01023 142.219 11.5527C142.282 13.1274 142.456 14.7593 141.014 15.9345C140.417 16.4197 140.959 16.5779 141.246 16.8581C142.965 18.5392 143.106 22.4645 141.528 24.2961C140.824 25.1133 139.924 25.4557 138.852 25.4532C135.615 25.4428 132.381 25.4739 129.144 25.4428C127.31 25.4246 126.535 24.6645 126.496 22.8329C126.452 20.6744 126.486 18.5133 126.486 16.3522ZM134.334 22.4956V22.4904C135.023 22.4904 135.711 22.4826 136.4 22.4904C137.751 22.5086 138.643 22.0779 138.667 20.5265C138.693 18.7208 138.218 18.0022 136.499 17.9062C134.757 17.8076 133.007 17.8829 131.259 17.8621C130.443 17.8517 130.184 18.2539 130.122 19.0218C129.848 22.2984 130.012 22.4956 133.382 22.4956C133.7 22.4956 134.019 22.4956 134.334 22.4956ZM134.024 14.8994V14.889C134.871 14.889 135.719 14.8786 136.567 14.889C138.059 14.9124 138.505 13.9395 138.51 12.7305C138.515 11.519 138.064 10.5513 136.58 10.559C135.151 10.5668 133.719 10.5487 132.289 10.5539C130.184 10.5616 130.137 10.6135 130.127 12.6657C130.12 14.1444 130.836 14.8873 132.276 14.8942C132.858 14.8942 133.442 14.8942 134.024 14.8942V14.8994Z" fill="#161C26"/>
<path d="M50.0565 20.1347C50.0565 17.9969 50.0565 15.8618 50.0565 13.724C50.0565 12.2479 50.0617 10.7717 50.0721 9.29551C50.0826 8.02947 50.7477 7.54174 51.9971 7.55471C53.1734 7.56509 53.8333 8.03466 53.8359 9.21509C53.849 13.8019 53.8672 18.3887 53.8151 22.9755C53.7994 24.283 53.2099 25.3182 51.7832 25.6528C50.2469 26.0108 48.7471 25.4245 47.8159 23.9821C45.6093 20.5653 43.4444 17.12 41.2534 13.6955C40.9769 13.2649 40.8256 12.7174 40.2492 12.4943C39.7092 12.9587 39.9466 13.5762 39.944 14.1106C39.9179 17.2212 39.9075 20.3318 39.9414 23.4424C39.9544 24.654 39.7457 25.4608 38.2303 25.4764C36.6653 25.492 36.3497 24.6644 36.3523 23.3854C36.3654 19.1151 36.3549 14.8422 36.3575 10.5719C36.3575 9.15023 36.7331 7.95943 38.2825 7.47688C39.8083 7.00211 41.4151 7.50282 42.3228 8.8882C44.2608 11.8483 46.144 14.8474 48.0507 17.8283C48.5593 18.6222 49.0757 19.4108 49.587 20.2021C49.7435 20.1788 49.9 20.1554 50.0565 20.1321V20.1347Z" fill="#161C26"/>
<path d="M93.5609 20.5835C94.1165 19.6236 93.9339 18.9283 93.9391 18.2668C93.9626 15.2625 93.973 12.2557 93.9443 9.25144C93.9339 8.03729 94.479 7.55215 95.6814 7.55474C96.8056 7.55734 97.5568 7.86347 97.5542 9.1321C97.549 13.7189 97.5699 18.3057 97.5334 22.8925C97.5255 24.0547 97.1317 25.1003 95.8771 25.518C94.5129 25.972 93.1853 25.8448 92.2176 24.7345C91.3907 23.7849 90.7282 22.6875 90.0422 21.6264C88.099 18.6144 86.1819 15.5842 84.1865 12.4554C83.6388 12.9951 83.8292 13.5399 83.8266 14.0095C83.8057 17.172 83.8396 20.3371 83.8005 23.4996C83.7796 25.2014 83.198 25.6269 81.5078 25.4453C80.6627 25.3545 80.2584 24.9394 80.2584 24.1222C80.2558 19.2708 80.2428 14.4194 80.2662 9.57054C80.2714 8.40828 81.0226 7.72078 82.0921 7.45875C83.5918 7.09295 85.0056 7.33163 85.9133 8.69106C87.5852 11.1946 89.1658 13.7578 90.7908 16.2925C91.6646 17.6571 92.5488 19.0191 93.5583 20.5835H93.5609Z" fill="#161C26"/>
<path d="M121.167 16.5286C121.167 17.3718 121.217 18.2175 121.159 19.0555C120.899 22.7447 119.028 24.8902 115.366 25.518C112.847 25.9487 110.296 25.9331 107.781 25.3649C105.329 24.8123 103.785 23.3206 103.146 20.8923C102.382 17.9737 102.4 15.0472 103.112 12.139C103.725 9.63286 105.447 8.18003 107.938 7.65338C110.345 7.14489 112.784 7.11635 115.21 7.51328C119.028 8.13852 120.956 10.3074 121.167 14.16C121.212 14.9487 121.172 15.7399 121.172 16.5286C121.172 16.5286 121.167 16.5286 121.165 16.5286H121.167ZM111.882 22.7576C115.685 22.7602 116.811 21.8133 117.364 18.1449C117.388 17.9892 117.44 17.8336 117.448 17.6779C117.677 12.0119 116.53 9.54984 109.946 10.5149C108.212 10.7692 107.236 11.7758 106.787 13.4206C106.42 14.7722 106.511 16.1421 106.529 17.5067C106.581 21.323 108.055 22.7524 111.879 22.755L111.882 22.7576Z" fill="#161C26"/>
<path d="M26.725 5.55191C27.8935 5.66347 28.7934 6.11488 29.3073 7.18375C29.8211 8.25002 29.7194 9.26182 28.9395 10.1309C28.0918 11.0753 27.1528 11.9366 26.2686 12.8472C23.9445 15.2496 23.955 17.2109 26.2946 19.5613C27.1163 20.3863 27.977 21.1776 28.7543 22.0415C29.9072 23.3205 29.8941 24.955 28.7882 26.0213C27.6379 27.1316 25.9973 27.2198 24.7714 26.0446C22.0952 23.4814 19.466 20.8689 16.8838 18.2123C15.6892 16.9826 15.6631 15.509 16.8838 14.2352C19.4478 11.563 22.1109 8.98422 24.7531 6.38729C25.2904 5.85804 25.9764 5.55451 26.7276 5.54932L26.725 5.55191Z" fill="#161C26"/>
<path d="M74.507 25.4531C73.2185 25.7281 72.6185 24.8642 72.1334 23.663C70.9075 20.6276 71.5491 21.0635 68.1739 21.0245C66.8489 21.009 65.5213 21.0712 64.1989 21.009C63.1973 20.9623 62.5947 21.3255 62.3052 22.2828C62.1383 22.8354 61.8905 23.3646 61.6583 23.8965C61.0428 25.3234 59.6186 25.9408 58.1684 25.383C57.1668 24.9991 57.6128 24.296 57.8684 23.6837C59.2326 20.4252 60.6072 17.1745 61.9844 13.9238C62.6625 12.3231 63.3538 10.725 64.0476 9.13209C64.5927 7.88162 65.5708 7.30308 66.935 7.30567C68.3565 7.30827 69.3946 7.91275 69.9476 9.21511C72.0108 14.0639 74.0688 18.9153 76.0928 23.7823C76.6614 25.1521 76.3824 25.4349 74.507 25.4505V25.4531ZM66.9193 18.3498C67.4488 18.3498 67.9809 18.3186 68.5104 18.355C69.6372 18.4328 70.1198 18.1604 69.559 16.9385C68.8782 15.4545 68.3357 13.9109 67.7097 12.401C67.5558 12.0326 67.5193 11.4488 67.0211 11.4385C66.4264 11.4255 66.3794 12.0611 66.1994 12.471C65.7586 13.4854 65.3674 14.5205 64.9501 15.5479C64.1919 17.4175 64.8492 18.3515 66.922 18.3498H66.9193Z" fill="#161C26"/>
<path d="M13.3024 13.3817C12.3973 13.4102 11.6513 13.0548 11.0227 12.4322C9.59335 11.0208 8.14573 9.62509 6.75028 8.18004C5.42264 6.80504 5.30526 5.09278 6.38772 3.93052C7.49626 2.74231 8.91519 2.72155 10.5089 3.87085C12.6973 5.44561 14.3875 5.3574 16.3437 3.5258C17.2697 2.65929 18.1304 1.72273 19.059 0.858817C20.2432 -0.241183 22.0038 -0.282693 23.081 0.718723C24.1713 1.73052 24.2991 3.54136 23.1645 4.71141C20.5536 7.40693 17.8591 10.022 15.1856 12.6553C14.6796 13.1534 14.0171 13.3661 13.2998 13.3791L13.3024 13.3817Z" fill="#161C26"/>
<path d="M13.4928 27.3366C12.2826 27.3444 11.3827 27.8607 10.5141 28.5041C9.02217 29.6119 7.42848 29.5314 6.39037 28.3484C5.38616 27.2069 5.51136 25.5206 6.76597 24.226C8.20055 22.7472 9.65339 21.284 11.1584 19.8753C12.666 18.464 14.0093 18.4795 15.4726 19.909C18.0053 22.3814 20.5171 24.8772 23.008 27.3937C24.3591 28.7557 24.3983 30.4161 23.188 31.5887C22.0821 32.6602 20.3371 32.6135 19.0382 31.4201C18.0652 30.5277 17.1575 29.5652 16.2107 28.6442C15.4308 27.884 14.5231 27.3781 13.4902 27.334L13.4928 27.3366Z" fill="#161C26"/>
<path d="M164.275 7.5677C166.555 7.5677 168.834 7.58326 171.114 7.56251C172.217 7.55213 173.039 7.85567 172.997 9.1269C172.961 10.3125 172.131 10.5616 171.125 10.5538C169.959 10.546 168.79 10.6031 167.627 10.5434C166.456 10.4837 166.028 10.9715 166.038 12.1208C166.075 15.9111 166.033 19.704 166.051 23.4944C166.059 24.8564 165.545 25.5024 164.069 25.4816C162.684 25.4635 162.183 24.8979 162.196 23.5774C162.23 19.8389 162.16 16.0979 162.23 12.362C162.256 10.9974 161.826 10.4319 160.412 10.5356C159.199 10.6264 157.973 10.559 156.755 10.5304C155.795 10.5071 155.279 9.98303 155.292 9.03091C155.305 8.07619 155.837 7.58326 156.8 7.58067C159.291 7.57548 161.784 7.58067 164.275 7.58067V7.57029V7.5677Z" fill="#161C26"/>
<path d="M10.5429 15.9189C10.5376 17.0215 10.1412 17.6961 9.56995 18.272C8.08321 19.7689 6.60689 21.2788 5.0758 22.7343C3.72991 24.0133 2.14665 24.0704 0.944211 22.9755C-0.200845 21.9352 -0.268662 20.5031 0.753803 18.9855C2.38662 16.5623 2.37879 15.5116 0.670337 13.1741C-0.229537 11.9444 -0.229537 10.7043 0.709462 9.54724C1.62498 8.41871 2.97871 8.10479 4.1342 8.87012C6.51821 10.4501 8.47185 12.5385 10.1829 14.8241C10.449 15.1796 10.4803 15.7062 10.5455 15.9163L10.5429 15.9189Z" fill="#161C26"/>
<path d="M151.453 16.5078C151.453 18.9335 151.424 21.3566 151.463 23.7823C151.484 25.1392 150.772 25.4739 149.559 25.4687C148.375 25.4635 147.798 25.051 147.806 23.8083C147.835 18.9595 147.832 14.1106 147.806 9.26182C147.801 8.05545 148.323 7.55993 149.533 7.55475C150.741 7.54956 151.476 7.88942 151.461 9.23847C151.434 11.6616 151.453 14.0873 151.453 16.513V16.5078Z" fill="#161C26"/>
</g>
<defs>
<clipPath id="clip0_1901_630">
<rect width="173" height="32.3566" fill="white"/>
</clipPath>
</defs>
</svg>
