<svg width="122" height="29" viewBox="0 0 122 29" fill="none" xmlns="http://www.w3.org/2000/svg">
<g clip-path="url(#clip0_1901_650)">
<path d="M7.35656 11.6963C12.8851 9.787 13.8242 4.81789 13.1199 0.246313C13.1199 0.0811421 13.2597 -0.0364368 13.4022 0.0111547C18.696 2.60349 24.6466 8.25568 24.6466 16.7382C24.6466 23.2414 19.6127 28.9888 12.2982 28.9888C5.80532 29.2855 0.307513 24.2548 0.0112404 17.7572C-0.184411 13.4515 1.98173 9.38387 5.65998 7.14988C5.79974 7.05469 5.9898 7.14987 5.9898 7.31504C6.05967 8.18569 6.29445 10.3777 7.25874 11.6963H7.35377H7.35656Z" fill="#161C26"/>
<path d="M40.2149 23.8293L40.6146 23.359L41.8612 27.3175L41.6962 27.4827C40.7543 28.3533 39.3428 28.8012 37.5317 28.8012H37.4618C35.8155 28.8012 34.5214 28.3309 33.627 27.4575C32.7326 26.5616 32.263 25.2207 32.263 23.5242V12.7349H29.0879V8.37608H32.263V3.12142H37.1543V8.37608H41.0366V12.7349H37.132V22.466C37.132 22.9139 37.2494 24.35 38.6133 24.35C39.3177 24.35 39.9773 24.0897 40.2121 23.8069V23.8293H40.2149ZM42.8031 28.3533V8.39848H47.6944V28.3533H42.8031ZM45.2264 0.246338C46.8503 0.246338 48.1667 1.5649 48.1667 3.19141C48.1667 4.81792 46.8503 6.13648 45.2264 6.13648C43.6108 6.13648 42.3 4.83192 42.286 3.21381C42.286 1.61249 43.6276 0.246338 45.2264 0.246338ZM60.845 7.90297C65.0794 7.90297 67.4077 10.2126 67.4077 14.4286V28.3281H62.5164V15.6072C62.4213 13.3452 61.3397 12.3094 59.0338 12.3094C56.9627 12.3094 55.294 13.5803 54.4471 14.6666V28.3309H49.5559V8.42087H54.4471V10.5401C55.8586 9.17394 58.117 7.94776 60.845 7.94776V7.90017V7.90297ZM83.6859 10.4701V1.09459H88.5772V28.3757H83.6859V26.3013C82.1738 27.8998 80.0747 28.8096 77.875 28.8208C72.5365 28.8208 68.9589 24.6272 68.9589 18.3843C68.9589 12.1414 72.5337 7.92256 77.875 7.92256C80.0803 7.93376 82.1822 8.85199 83.6859 10.4673V10.4701ZM83.6859 14.6861C82.5819 13.2444 80.8881 12.3794 79.0769 12.329C76.0415 12.329 74.0207 14.7561 74.0207 18.3843C74.0207 22.0124 76.0443 24.4144 79.0769 24.4144C80.8406 24.4144 82.7691 23.471 83.6859 22.1048V14.6833V14.6861ZM100.009 7.92536C105.795 7.92536 109.817 12.4018 109.817 18.7622V20.106H95.0225C95.5172 22.9083 97.7281 24.7 100.738 24.7C102.645 24.7 104.738 23.8741 105.937 22.6731L106.267 22.3904L108.595 25.7358L108.36 25.9485C106.155 27.9054 103.282 28.9356 100.339 28.8236C94.2231 28.8236 89.9188 24.5124 89.9188 18.3619C89.7231 12.7965 94.0694 8.12693 99.6259 7.93096C99.7601 7.92536 99.897 7.92536 100.031 7.92536H100.009ZM94.9974 16.4078H105.04C104.758 13.4152 102.287 12.049 100.006 12.049C96.571 12.049 95.2769 14.6414 94.9946 16.4302V16.4078H94.9974ZM121.648 7.92536H122V12.8721L121.578 12.8021C121.226 12.7321 120.779 12.6845 120.331 12.6845C118.755 12.6845 116.569 13.7931 115.745 14.9689V28.3281H110.854V8.39848H115.77V10.6129C117.394 8.91638 119.532 7.92816 121.651 7.92816L121.648 7.92536Z" fill="#161C26"/>
</g>
<defs>
<clipPath id="clip0_1901_650">
<rect width="122" height="29" fill="white"/>
</clipPath>
</defs>
</svg>
