<svg width="103" height="45" viewBox="0 0 103 45" fill="none" xmlns="http://www.w3.org/2000/svg">
<path d="M39.49 25.7346H36.1V7.31464H39.49V0.00463976H25.93L19.74 18.5546H19.34L13.9 0.00463976H0V7.31464H3.39V25.7346H0V33.0446H12.82V19.6746H13.7L17.95 33.0446H21.47L25.79 19.6746H26.59V33.0446H39.49V25.7346ZM94.8 25.7346H87.29V7.31464H90.62V0.00463976H73.26V7.31464H76.65V25.7346H73.26V33.0446H101.98V20.0746H94.8V25.7346ZM59.83 0.00463976H57.44V8.64464H63.69L64.22 9.31464L59.17 22.5346C74.56 23.9446 75.07 -0.38536 59.83 0.00463976Z" fill="black"/>
<path d="M6.89001 43.3546C5.56001 45.7446 1.82001 45.0946 0.0400085 43.5146L1.20001 42.1446C2.20001 43.7346 7.23001 43.3246 4.29001 41.5146C-3.28999 40.5746 1.77001 33.0346 6.85001 37.0446L5.83001 38.4846C4.94001 37.7546 2.01001 36.8646 2.42001 38.7846C4.25001 39.9146 8.35001 40.0746 6.89001 43.3546ZM57.45 13.9046H51.19L50.66 13.2346L55.71 0.00463867H43.42V7.32464H46.81V25.7346H43.42V33.0446H57.45V13.9046Z" fill="black"/>
<path d="M102.11 43.3646C100.77 45.7346 97.04 45.1046 95.27 43.5146L96.43 42.1546C97.24 43.2846 101.46 43.9246 100.07 41.7646C99.01 41.1946 97.39 41.1646 96.42 40.4046C93.28 36.8146 99.58 34.4446 102.07 37.0546L101.05 38.4946C100.17 37.7446 97.23 36.8746 97.64 38.7846C99.46 39.9246 103.6 40.0846 102.11 43.3646ZM80.76 37.8346V44.7846H78.78V37.8346H76.04V36.0646H83.48V37.8346H80.76ZM62.3 44.7846L60.37 41.9946H58.82V44.7846H56.84V36.0646C58.43 36.1846 62.27 35.6246 63.44 36.8246C65 38.1346 64.44 41.1146 62.41 41.6746L64.6 44.7846H62.3ZM62.33 39.0346C62.38 37.3146 59.9 37.8946 58.82 37.7946V40.3046C59.91 40.2146 62.39 40.7746 62.33 39.0346ZM46.09 42.1746C43.85 47.5246 34.81 44.2546 37.27 38.6746C39.51 33.3346 48.52 36.5846 46.09 42.1746ZM44.38 40.4246C44.51 36.8846 38.85 36.8346 38.97 40.4046C38.82 43.9646 44.53 44.0146 44.38 40.4246ZM25.91 40.4346C25.07 42.2446 22.78 42.2246 21.06 42.1646V44.7846H19.08V36.0646C22.02 35.7846 27.66 35.9846 25.91 40.4346ZM24.18 39.1146C24.23 37.4846 22.15 37.8246 21.06 37.7946V40.4646C22.16 40.4646 24.23 40.7246 24.18 39.1146Z" fill="black"/>
</svg>
